<?xml version="1.0" encoding="utf-8"?>
<!-- Generator: Adobe Illustrator 25.2.3, SVG Export Plug-In . SVG Version: 6.00 Build 0)  -->
<svg version="1.1" id="Capa_1" xmlns="http://www.w3.org/2000/svg" xmlns:xlink="http://www.w3.org/1999/xlink" x="0px" y="0px"
	 viewBox="0 0 50 50" style="enable-background:new 0 0 50 50;" xml:space="preserve">
<style type="text/css">
	.st0{fill:#F2F2F2;}
	.st1{fill:#B2CA9E;}
	.st2{fill:#CBDBBE;}
	.st3{fill:#7EA65D;}
	.st4{fill:#333333;}
</style>
<path class="st0" d="M23.01,23.21c6.05,0,10.95-4.9,10.95-10.95S29.06,1.3,23.01,1.3c-6.05,0-10.95,4.9-10.95,10.95
	S16.96,23.21,23.01,23.21z"/>
<path class="st1" d="M30.27,19.22c0,0-2.94-3.19-2.94-5.73s2.07-6.44,2.07-6.44s0.04-0.21,0.21-0.23c0.16-0.02,0.25-0.02,0.66,0.55
	c0.41,0.57,2.36,2.68,3.12,5.65c0.75,2.98-1.26,5.29-1.26,5.29s-0.87,1-1.01,1.37c-0.14,0.37-0.67-0.29-0.67-0.29L30.27,19.22z"/>
<path class="st1" d="M29.94,19.22c0,0-3.12-2.88-5.62-2.88S18,18.37,18,18.37s-0.2,0.04-0.22,0.2c-0.02,0.16-0.02,0.25,0.54,0.65
	s2.62,2.32,5.54,3.06c2.92,0.75,5.19-1.24,5.19-1.24s0.98-0.85,1.34-0.99c0.37-0.13-0.29-0.66-0.29-0.66L29.94,19.22z"/>
<path class="st1" d="M24.85,13.15c0,0-1.72-1.87-1.72-3.36s1.21-3.78,1.21-3.78s0.03-0.12,0.12-0.13c0.1-0.01,0.15-0.01,0.39,0.32
	c0.24,0.34,1.39,1.57,1.83,3.32c0.45,1.74-0.74,3.1-0.74,3.1s-0.51,0.59-0.59,0.81c-0.08,0.22-0.4-0.17-0.4-0.17L24.85,13.15z"/>
<path class="st1" d="M24.62,13.39c0,0-1.87-1.72-3.36-1.72c-1.49,0-3.78,1.21-3.78,1.21s-0.12,0.03-0.13,0.12
	c-0.01,0.1-0.01,0.15,0.32,0.39c0.34,0.24,1.57,1.39,3.32,1.83c1.74,0.45,3.1-0.74,3.1-0.74s0.59-0.51,0.81-0.59
	c0.22-0.08-0.17-0.4-0.17-0.4L24.62,13.39z"/>
<path class="st2" d="M21.3,9.54c0,0-0.94-1.02-0.94-1.84s0.66-2.07,0.66-2.07s0.01-0.07,0.07-0.07c0.05-0.01,0.08-0.01,0.22,0.18
	c0.13,0.19,0.76,0.86,1,1.81c0.24,0.95-0.4,1.7-0.4,1.7s-0.28,0.32-0.32,0.44c-0.04,0.12-0.22-0.1-0.22-0.1L21.3,9.54z"/>
<path class="st2" d="M19.62,8.34c0,0-1.22-0.35-1.61-0.98c-0.39-0.63-0.47-1.92-0.47-1.92s-0.02-0.06,0.01-0.09
	c0.04-0.03,0.06-0.04,0.25,0.04c0.19,0.08,1,0.31,1.64,0.93s0.49,1.51,0.49,1.51s-0.07,0.38-0.04,0.5c0.02,0.12-0.22,0.03-0.22,0.03
	L19.62,8.34z"/>
<path class="st2" d="M21.18,9.62c0,0-0.99-0.92-1.78-0.92s-2.01,0.64-2.01,0.64s-0.07,0.01-0.07,0.07
	c-0.01,0.05-0.01,0.08,0.17,0.21c0.18,0.13,0.84,0.74,1.76,0.97c0.92,0.23,1.65-0.4,1.65-0.4s0.31-0.27,0.43-0.31
	c0.12-0.04-0.09-0.21-0.09-0.21L21.18,9.62z"/>
<path class="st3" d="M31.1,20.31c-0.96-0.79-2.07-1.57-2.96-2.55c-0.91-0.97-1.6-2.09-2.39-3.09c-0.79-1.01-1.67-1.92-2.71-2.71
	c-0.48-0.45-0.93-0.92-1.29-1.49c-0.17-0.28-0.31-0.57-0.5-0.83s-0.43-0.48-0.68-0.68l-0.7-0.66l0.73,0.63
	c0.27,0.19,0.52,0.4,0.73,0.65c0.22,0.25,0.38,0.54,0.56,0.8c0.37,0.5,0.84,0.97,1.32,1.37c1.05,0.73,2.05,1.63,2.88,2.65
	c0.84,1.01,1.55,2.09,2.45,2.98c0.9,0.9,1.95,1.57,3.03,2.37L31.1,20.31z"/>
<path class="st4" d="M23.01,23.45c-6.17,0-11.19-5.02-11.19-11.19c0-6.17,5.02-11.19,11.19-11.19S34.19,6.1,34.19,12.27
	C34.19,18.43,29.18,23.45,23.01,23.45z M23.01,1.83c-5.76,0-10.44,4.68-10.44,10.44c0,5.76,4.68,10.44,10.44,10.44
	s10.44-4.68,10.44-10.44C33.45,6.51,28.77,1.83,23.01,1.83z"/>
<path class="st4" d="M39.59,28.63c-0.14,0-0.28-0.05-0.39-0.16c-0.02-0.02-2.31-2.2-8.48-8.22c-0.22-0.22-0.23-0.57-0.01-0.8
	c0.22-0.22,0.57-0.23,0.8-0.01c6.17,6.01,8.45,8.19,8.47,8.2c0.22,0.22,0.24,0.57,0.02,0.8C39.88,28.57,39.74,28.63,39.59,28.63z"/>
<path class="st4" d="M25.91,4.24c1.34,0.4,2.6,1.14,3.63,2.14c0.51,0.5,1.03,1.02,1.36,1.68c0.32,0.65,0.54,1.35,0.57,2.07
	c0,0.02-0.01,0.04-0.04,0.04c-0.01,0-0.03-0.01-0.04-0.01l-1.13-1.72c-0.38-0.54-0.71-1.13-1.15-1.65
	c-0.87-1.02-1.98-1.88-3.23-2.48c-0.01-0.01-0.03-0.03-0.01-0.05C25.87,4.24,25.89,4.24,25.91,4.24z"/>
<path d="M5.71,44.43c-0.11,0-0.18-0.08-0.2-0.23c0.06-0.37,0.15-0.88,0.29-1.52c0.14-0.64,0.23-1.04,0.26-1.2
	c0.2-0.91,0.3-1.39,0.31-1.45c-0.62-0.2-0.94-0.38-0.94-0.54c0-0.08,0.03-0.14,0.09-0.19c0.06-0.05,0.12-0.08,0.2-0.08
	c0.1,0,0.24,0.04,0.44,0.12c0.2,0.07,0.3,0.12,0.32,0.13l1.1-5.16c-0.32,0.1-0.56,0.28-0.72,0.56c-0.07,0.09-0.15,0.13-0.25,0.13
	c-0.13,0-0.2-0.06-0.2-0.19c0-0.1,0.06-0.21,0.17-0.35c0.11-0.15,0.26-0.28,0.46-0.41c0.21-0.13,0.44-0.22,0.7-0.28
	c0.08-0.15,0.17-0.22,0.28-0.22c0.1,0,0.17,0.06,0.19,0.17c0.51,0,0.97,0.12,1.38,0.35c0.41,0.23,0.73,0.55,0.96,0.96
	c0.23,0.4,0.34,0.85,0.34,1.34c0,0.89-0.17,1.63-0.52,2.21s-0.77,1-1.29,1.25c-0.51,0.26-1.02,0.39-1.54,0.39
	c-0.25,0-0.48-0.03-0.7-0.09c-0.04,0.21-0.14,0.71-0.32,1.52c-0.29,1.44-0.46,2.26-0.5,2.45c-0.01,0.09-0.06,0.16-0.12,0.22
	C5.84,44.4,5.78,44.43,5.71,44.43z M9.65,38.79c0.51-0.59,0.77-1.3,0.77-2.15c0-0.44-0.1-0.84-0.29-1.21
	c-0.19-0.37-0.46-0.67-0.81-0.88c-0.35-0.22-0.76-0.33-1.22-0.33l-1.16,5.41c0.23,0.05,0.45,0.08,0.64,0.08
	c0.38,0,0.75-0.08,1.11-0.23C9.06,39.33,9.38,39.1,9.65,38.79z M12.4,44.46c-0.26,0-0.47-0.07-0.61-0.21
	c-0.13-0.14-0.2-0.32-0.2-0.55c0-0.2,0.01-0.38,0.03-0.54c0.02-0.17,0.06-0.43,0.12-0.78c0.12-0.68,0.27-1.46,0.45-2.33l0.29-1.39
	c0.63-3.01,0.97-4.6,1.01-4.74c0.04-0.12,0.12-0.18,0.24-0.18c0.15,0,0.23,0.08,0.23,0.25l-0.04,0.29
	c-0.04,0.23-0.08,0.45-0.12,0.66c-0.04,0.2-0.12,0.58-0.24,1.16c-0.2,0.92-0.45,2.11-0.76,3.56c-0.3,1.45-0.49,2.42-0.57,2.9
	c-0.1,0.53-0.14,0.86-0.14,0.99c0,0.11,0.03,0.21,0.1,0.3c0.07,0.09,0.15,0.13,0.24,0.13c0.1,0,0.2-0.02,0.29-0.06
	c0.1-0.04,0.16-0.07,0.19-0.09l0.19-0.1c0.06-0.03,0.1-0.04,0.11-0.04c0.16,0,0.24,0.08,0.24,0.24c0,0.16-0.1,0.29-0.31,0.39
	C12.93,44.42,12.68,44.46,12.4,44.46z M17.87,44.39c-0.17,0-0.33-0.09-0.47-0.26c-0.14-0.18-0.21-0.38-0.21-0.58
	c0-0.45,0.12-1.22,0.36-2.31c-0.18,0.4-0.42,0.8-0.72,1.22c-0.29,0.41-0.57,0.77-0.85,1.09c-0.28,0.32-0.48,0.52-0.62,0.62
	c-0.18,0.14-0.39,0.21-0.61,0.21c-0.42,0-0.63-0.26-0.63-0.79c0-0.51,0.19-1.15,0.58-1.91c0.39-0.77,0.85-1.44,1.39-2
	c0.54-0.56,0.97-0.84,1.3-0.84c0.34,0,0.53,0.15,0.57,0.44c0.02,0.09,0.03,0.18,0.03,0.29c0.04-0.02,0.08-0.03,0.12-0.03
	c0.17,0,0.25,0.08,0.25,0.24v0.04l-0.13,0.48c-0.1,0.37-0.21,0.91-0.32,1.63s-0.17,1.32-0.17,1.79l0.11,0.07
	c0.18,0.11,0.26,0.22,0.26,0.33c0,0.07-0.03,0.14-0.08,0.2C18.02,44.36,17.95,44.39,17.87,44.39z M14.86,43.8
	c0.08,0,0.15-0.03,0.2-0.08c0.75-0.64,1.41-1.52,1.99-2.65c0.25-0.47,0.4-0.78,0.46-0.92c0.07-0.15,0.1-0.29,0.1-0.43
	c0-0.07-0.02-0.14-0.06-0.2c-0.04-0.06-0.08-0.09-0.14-0.09c-0.07,0-0.17,0.03-0.29,0.1c-0.29,0.15-0.64,0.48-1.05,0.98
	c-0.4,0.5-0.72,1.03-0.98,1.58c-0.27,0.56-0.41,1.07-0.41,1.51C14.69,43.73,14.75,43.8,14.86,43.8z M22.33,44.44
	c-0.12,0-0.2-0.02-0.25-0.07c-0.05-0.04-0.07-0.12-0.06-0.23l0.54-3.21c0.07-0.4,0.1-0.7,0.1-0.91c0-0.35-0.1-0.53-0.3-0.53
	c-0.24,0-0.58,0.42-1,1.27c-0.42,0.84-0.85,1.78-1.3,2.84l-0.15,0.35c-0.13,0.29-0.26,0.43-0.4,0.43c-0.07,0-0.12-0.01-0.14-0.04
	c-0.01-0.04-0.02-0.11-0.02-0.22c0-0.11,0.14-0.96,0.43-2.54c0.29-1.58,0.46-2.42,0.51-2.5c0.04-0.09,0.08-0.14,0.11-0.17
	c0.04-0.02,0.1-0.03,0.2-0.03c0.09,0,0.16,0.03,0.21,0.1c0.06,0.07,0.09,0.13,0.09,0.2c0,0.04-0.04,0.19-0.11,0.43
	c-0.22,0.75-0.39,1.47-0.52,2.18l-0.11,0.65c0.12-0.26,0.22-0.47,0.28-0.62c0.21-0.48,0.39-0.89,0.56-1.25
	c0.18-0.36,0.37-0.69,0.58-1c0.32-0.46,0.62-0.69,0.9-0.69c0.49,0,0.74,0.4,0.74,1.19c0,0.17-0.02,0.39-0.07,0.65
	c-0.04,0.26-0.09,0.54-0.14,0.81c-0.1,0.54-0.17,0.9-0.2,1.1l-0.08,0.51c-0.07,0.45-0.12,0.79-0.18,1
	C22.5,44.33,22.43,44.44,22.33,44.44z M25.24,44.42c-0.26,0-0.45-0.07-0.58-0.2c-0.12-0.13-0.19-0.37-0.19-0.72
	c0-0.19,0.02-0.41,0.07-0.66l0.1-0.63l0.12-0.52l0.07-0.3l0.14-0.61c0.01-0.1,0.05-0.25,0.1-0.46l0.06-0.22l0.1-0.47l0.07-0.33
	c-0.29,0-0.55,0.02-0.79,0.06c-0.15-0.02-0.22-0.08-0.22-0.19c0-0.07,0.03-0.14,0.09-0.21c0.06-0.07,0.13-0.1,0.21-0.11l0.79,0.02
	c0,0,0.02-0.09,0.06-0.28c0.01-0.15,0.04-0.32,0.09-0.51c0.04-0.19,0.1-0.36,0.17-0.51c0.07-0.16,0.16-0.24,0.29-0.24
	c0.12,0,0.18,0.07,0.18,0.2v0.07c-0.03,0.15-0.06,0.25-0.08,0.32l-0.19,0.94h0.79c0.28,0,0.45,0.02,0.52,0.07
	c0.06,0.04,0.09,0.1,0.09,0.17c0,0.12-0.06,0.19-0.17,0.23c-0.1,0.03-0.28,0.04-0.54,0.04c-0.23,0-0.5-0.01-0.78-0.03
	c-0.04,0.24-0.19,0.91-0.45,2.01c-0.23,1-0.35,1.63-0.35,1.89c0,0.29,0.03,0.47,0.1,0.56c0.04,0.06,0.11,0.09,0.23,0.09
	c0.1,0,0.19-0.03,0.26-0.08c0.08-0.06,0.16-0.14,0.24-0.23c0.08-0.1,0.15-0.18,0.21-0.23c0.06-0.05,0.12-0.08,0.19-0.08
	c0.15,0,0.22,0.07,0.22,0.22c0,0.07-0.07,0.19-0.22,0.36c-0.15,0.17-0.29,0.3-0.42,0.41C25.67,44.37,25.49,44.42,25.24,44.42z
	 M33.53,44.45c-0.91-0.01-1.61-0.03-2.09-0.04c-0.48-0.01-0.74-0.03-0.8-0.03c-0.05-0.01-0.08-0.04-0.1-0.07
	c-0.04-0.04-0.06-0.11-0.06-0.19c0-0.15,0.06-0.31,0.17-0.46c0.15-0.24,0.33-0.81,0.54-1.69c0.21-0.89,0.45-2.02,0.73-3.4
	c0.02-0.1,0.11-0.52,0.26-1.27c0.19-0.88,0.41-1.94,0.67-3.19c0.02-0.07,0.07-0.14,0.13-0.19c0.07-0.05,0.13-0.08,0.19-0.08
	c0.1,0,0.17,0.06,0.19,0.19c-0.16,0.7-0.39,1.83-0.69,3.39c-0.18,0.92-0.43,2.12-0.75,3.58c-0.32,1.46-0.53,2.39-0.65,2.78
	c0.78,0.13,1.42,0.2,1.9,0.2c0.54-0.01,0.94-0.03,1.19-0.04c0.25-0.01,0.49-0.04,0.73-0.07c0.12,0,0.19,0.06,0.19,0.19
	c0,0.06-0.03,0.12-0.08,0.19c-0.05,0.07-0.11,0.11-0.19,0.13C34.41,44.42,33.92,44.45,33.53,44.45z M36.79,44.48
	c-0.25,0-0.37-0.2-0.37-0.61c0-0.1,0.02-0.19,0.06-0.28c0.04-0.12,0.07-0.27,0.1-0.43l0.17-0.74l0.22-0.97
	c0.07-0.36,0.16-0.76,0.26-1.21c0.01-0.04,0.03-0.12,0.04-0.22c0.07-0.32,0.11-0.5,0.11-0.55v-0.11c0-0.06-0.03-0.18-0.08-0.36
	c0-0.09,0.03-0.17,0.09-0.24c0.07-0.07,0.14-0.11,0.23-0.11c0.08,0,0.15,0.06,0.21,0.17c0.06,0.11,0.09,0.23,0.09,0.36
	c0,0.15-0.17,0.94-0.51,2.38c-0.34,1.44-0.51,2.2-0.51,2.29c0,0.08,0.04,0.12,0.11,0.12c0.04,0,0.1-0.05,0.2-0.14
	c0.09-0.09,0.16-0.13,0.22-0.13c0.12,0,0.18,0.07,0.18,0.22c0,0.09-0.05,0.18-0.15,0.26c-0.1,0.09-0.22,0.16-0.35,0.21
	C36.97,44.45,36.87,44.48,36.79,44.48z M37.91,37.84c-0.12,0-0.21-0.01-0.26-0.04H37.6c-0.21,0-0.32-0.12-0.32-0.37
	c0-0.12,0.05-0.24,0.15-0.34c0.11-0.1,0.23-0.15,0.35-0.15s0.24,0.04,0.35,0.13c0.12,0.12,0.19,0.25,0.19,0.36
	c0,0.11-0.04,0.21-0.13,0.3C38.11,37.8,38.02,37.84,37.91,37.84z M36.07,48.89c-0.26,0-0.56-0.05-0.89-0.15
	c-0.34-0.1-0.62-0.23-0.86-0.39c-0.23-0.15-0.35-0.29-0.35-0.42c0-0.07,0.03-0.13,0.1-0.18c0.07-0.04,0.16-0.06,0.29-0.06
	c0.4,0.29,0.7,0.47,0.91,0.54c0.21,0.08,0.5,0.12,0.85,0.12c0.65,0,1.17-0.2,1.57-0.59c0.4-0.39,0.72-0.92,0.96-1.6
	c0.15-0.44,0.31-1.15,0.47-2.12c0.16-0.98,0.34-2.19,0.55-3.61l0.17-1.09l-1.02,0.02c-0.15-0.01-0.22-0.08-0.22-0.2
	c0-0.1,0.03-0.17,0.1-0.21c0.07-0.04,0.19-0.07,0.35-0.08c0.17-0.01,0.47-0.02,0.9-0.02c0.23-0.92,0.44-1.64,0.65-2.18
	c0.21-0.54,0.49-0.95,0.84-1.25c0.34-0.31,0.79-0.46,1.34-0.46c0.61,0,0.91,0.11,0.91,0.33c0,0.11-0.07,0.22-0.22,0.32
	c-0.2-0.04-0.49-0.06-0.88-0.06c-0.51,0-0.96,0.31-1.33,0.92c-0.37,0.61-0.62,1.4-0.77,2.38l1.4,0.01c0.21,0,0.31,0.07,0.31,0.21
	c0,0.18-0.18,0.27-0.53,0.29h-0.34h-0.95c-0.1,0.53-0.29,1.75-0.57,3.65l-0.31,1.99c-0.26,1.57-0.77,2.67-1.53,3.29
	C37.5,48.7,36.87,48.89,36.07,48.89z M43.66,44.48c-0.23,0-0.42-0.04-0.55-0.11c-0.13-0.08-0.24-0.2-0.32-0.36
	c-0.15-0.29-0.23-0.63-0.23-1.03c0-0.7,0.11-1.37,0.32-2c0.21-0.64,0.5-1.17,0.87-1.61c0.35-0.41,0.74-0.62,1.16-0.62
	c0.22,0,0.39,0.09,0.52,0.28c0.13,0.18,0.2,0.39,0.2,0.65c0,0.45-0.12,0.84-0.35,1.17c-0.23,0.33-0.54,0.61-0.92,0.83
	c-0.34,0.2-0.75,0.4-1.23,0.59l-0.02,0.79c0,0.62,0.19,0.92,0.56,0.92c0.15,0,0.3-0.03,0.44-0.09c0.15-0.06,0.3-0.14,0.47-0.24
	c0.2-0.12,0.34-0.18,0.42-0.18c0.12,0,0.19,0.07,0.19,0.2c0,0.1-0.09,0.21-0.28,0.34c-0.18,0.13-0.39,0.25-0.63,0.34
	C44.02,44.44,43.82,44.48,43.66,44.48z M43.19,41.73c0.49-0.2,0.87-0.37,1.12-0.53s0.45-0.35,0.58-0.58
	c0.14-0.23,0.21-0.54,0.21-0.92c0-0.29-0.12-0.43-0.36-0.43c-0.21,0-0.46,0.19-0.75,0.58c-0.3,0.39-0.54,0.9-0.73,1.53
	C43.22,41.56,43.19,41.67,43.19,41.73z"/>
</svg>
